<svg width="60" height="60" viewBox="0 0 60 60" fill="none" xmlns="http://www.w3.org/2000/svg">
<circle cx="30" cy="30" r="30" fill="#00214C"/>
<path d="M23.625 15.75C23.625 15.4516 23.5065 15.1655 23.2955 14.9545C23.0845 14.7435 22.7984 14.625 22.5 14.625C22.2017 14.625 21.9155 14.7435 21.7045 14.9545C21.4936 15.1655 21.375 15.4516 21.375 15.75V18.12C19.215 18.2925 17.799 18.7155 16.758 19.758C15.7155 20.799 15.2925 22.2165 15.1185 24.375H44.8815C44.7075 22.215 44.2845 20.799 43.242 19.758C42.201 18.7155 40.7835 18.2925 38.625 18.1185V15.75C38.625 15.4516 38.5065 15.1655 38.2955 14.9545C38.0845 14.7435 37.7984 14.625 37.5 14.625C37.2017 14.625 36.9155 14.7435 36.7045 14.9545C36.4936 15.1655 36.375 15.4516 36.375 15.75V18.0195C35.3775 18 34.2585 18 33 18H27C25.7415 18 24.6225 18 23.625 18.0195V15.75Z" fill="white"/>
<path fill-rule="evenodd" clip-rule="evenodd" d="M15 30C15 28.7415 15 27.6225 15.0195 26.625H44.9805C45 27.6225 45 28.7415 45 30V33C45 38.6565 45 41.4855 43.242 43.242C41.484 44.9985 38.6565 45 33 45H27C21.3435 45 18.5145 45 16.758 43.242C15.0015 41.484 15 38.6565 15 33V30ZM37.5 33C37.8978 33 38.2794 32.842 38.5607 32.5607C38.842 32.2794 39 31.8978 39 31.5C39 31.1022 38.842 30.7206 38.5607 30.4393C38.2794 30.158 37.8978 30 37.5 30C37.1022 30 36.7206 30.158 36.4393 30.4393C36.158 30.7206 36 31.1022 36 31.5C36 31.8978 36.158 32.2794 36.4393 32.5607C36.7206 32.842 37.1022 33 37.5 33ZM37.5 39C37.8978 39 38.2794 38.842 38.5607 38.5607C38.842 38.2794 39 37.8978 39 37.5C39 37.1022 38.842 36.7206 38.5607 36.4393C38.2794 36.158 37.8978 36 37.5 36C37.1022 36 36.7206 36.158 36.4393 36.4393C36.158 36.7206 36 37.1022 36 37.5C36 37.8978 36.158 38.2794 36.4393 38.5607C36.7206 38.842 37.1022 39 37.5 39ZM31.5 31.5C31.5 31.8978 31.342 32.2794 31.0607 32.5607C30.7794 32.842 30.3978 33 30 33C29.6022 33 29.2206 32.842 28.9393 32.5607C28.658 32.2794 28.5 31.8978 28.5 31.5C28.5 31.1022 28.658 30.7206 28.9393 30.4393C29.2206 30.158 29.6022 30 30 30C30.3978 30 30.7794 30.158 31.0607 30.4393C31.342 30.7206 31.5 31.1022 31.5 31.5ZM31.5 37.5C31.5 37.8978 31.342 38.2794 31.0607 38.5607C30.7794 38.842 30.3978 39 30 39C29.6022 39 29.2206 38.842 28.9393 38.5607C28.658 38.2794 28.5 37.8978 28.5 37.5C28.5 37.1022 28.658 36.7206 28.9393 36.4393C29.2206 36.158 29.6022 36 30 36C30.3978 36 30.7794 36.158 31.0607 36.4393C31.342 36.7206 31.5 37.1022 31.5 37.5ZM22.5 33C22.8978 33 23.2794 32.842 23.5607 32.5607C23.842 32.2794 24 31.8978 24 31.5C24 31.1022 23.842 30.7206 23.5607 30.4393C23.2794 30.158 22.8978 30 22.5 30C22.1022 30 21.7206 30.158 21.4393 30.4393C21.158 30.7206 21 31.1022 21 31.5C21 31.8978 21.158 32.2794 21.4393 32.5607C21.7206 32.842 22.1022 33 22.5 33ZM22.5 39C22.8978 39 23.2794 38.842 23.5607 38.5607C23.842 38.2794 24 37.8978 24 37.5C24 37.1022 23.842 36.7206 23.5607 36.4393C23.2794 36.158 22.8978 36 22.5 36C22.1022 36 21.7206 36.158 21.4393 36.4393C21.158 36.7206 21 37.1022 21 37.5C21 37.8978 21.158 38.2794 21.4393 38.5607C21.7206 38.842 22.1022 39 22.5 39Z" fill="white"/>
</svg>
