<svg id="Layer_1" enable-background="new 0 0 512 512" viewBox="0 0 512 512" xmlns="http://www.w3.org/2000/svg">
    <g id="Layer_2_00000121237289019403756680000015889309084834805123_">
        <g id="double_check">
            <path fill="white" d="m447.7 159.6-264.4 264.4-119.2-119.2c-14.2-14.2-37.2-14.2-51.4 0-14.2 14.2-14.2 37.2 0 51.4l145 145 .1.1c14.2 14.2 37.2 14.2 51.4 0l.1-.1h.1l290-290c14.3-14.3 14.3-37.4 0-51.6-14.4-14.3-37.5-14.3-51.7 0z"/>
            <path fill="white" d="m410.3 10.7-227 227.1-119.2-119.2c-14.2-14.2-37.2-14.2-51.4 0-14.2 14.2-14.2 37.2 0 51.4l145 145 .1.1c14.2 14.2 37.2 14.2 51.4 0l.1-.1h.1l252.6-252.6c14.3-14.3 14.3-37.4 0-51.6-14.3-14.4-37.4-14.4-51.7-.1z"/>
        </g>
    </g>
</svg>
