<svg width="60" height="60" viewBox="0 0 60 60" fill="none" xmlns="http://www.w3.org/2000/svg">
<circle cx="30" cy="30" r="30" fill="#00214C"/>
<g clip-path="url(#clip0_379_10699)">
<path d="M45 18.3999L41.3 14.6999C40.982 14.3967 40.5594 14.2275 40.12 14.2275C39.6806 14.2275 39.258 14.3967 38.94 14.6999L35.65 17.9999H18C17.4696 17.9999 16.9609 18.2106 16.5858 18.5857C16.2107 18.9608 16 19.4695 16 19.9999V41.9999C16 42.5304 16.2107 43.0391 16.5858 43.4141C16.9609 43.7892 17.4696 43.9999 18 43.9999H40C40.5304 43.9999 41.0391 43.7892 41.4142 43.4141C41.7893 43.0391 42 42.5304 42 41.9999V23.7599L45 20.7599C45.3127 20.4468 45.4883 20.0224 45.4883 19.5799C45.4883 19.1374 45.3127 18.713 45 18.3999ZM30.83 32.1299L26.64 33.0599L27.64 28.9099L37.19 19.3399L40.42 22.5699L30.83 32.1299ZM41.5 21.4299L38.27 18.1999L40.12 16.3499L43.35 19.5799L41.5 21.4299Z" fill="white"/>
</g>
<defs>
<clipPath id="clip0_379_10699">
<rect width="36" height="36" fill="white" transform="translate(12 12)"/>
</clipPath>
</defs>
</svg>
