<svg id="Layer_1" enable-background="new 0 0 512 512" viewBox="0 0 512 512" xmlns="http://www.w3.org/2000/svg" xmlns:xlink="http://www.w3.org/1999/xlink"><linearGradient id="lg1"><stop offset="0" stop-color="#0bcff4"/><stop offset="1" stop-color="#4d5ef3"/></linearGradient><linearGradient id="SVGID_1_" gradientTransform="matrix(1 0 0 -1 0 512)" gradientUnits="userSpaceOnUse" x1=".4" x2="502.75" xlink:href="#lg1" y1="509.67" y2="7.32"/><linearGradient id="SVGID_00000124840077168715061430000013879347741389636265_" gradientTransform="matrix(1 0 0 -1 0 512)" gradientUnits="userSpaceOnUse" x1="74.84" x2="577.19" xlink:href="#lg1" y1="584.11" y2="81.76"/><g id="Layer_2_00000125596639130341857410000013554349691630466482_"><g id="double_check"><path d="m447.7 159.6-264.4 264.4-119.2-119.2c-14.2-14.2-37.2-14.2-51.4 0-14.2 14.2-14.2 37.2 0 51.4l145 145 .1.1c14.2 14.2 37.2 14.2 51.4 0l.1-.1h.1l290-290c14.3-14.3 14.3-37.4 0-51.6-14.4-14.3-37.5-14.3-51.7 0z" fill="url(#SVGID_1_)"/><path d="m410.3 10.7-227 227.1-119.2-119.2c-14.2-14.2-37.2-14.2-51.4 0-14.2 14.2-14.2 37.2 0 51.4l145 145 .1.1c14.2 14.2 37.2 14.2 51.4 0l.1-.1h.1l252.6-252.6c14.3-14.3 14.3-37.4 0-51.6-14.3-14.4-37.4-14.4-51.7-.1z" fill="url(#SVGID_00000124840077168715061430000013879347741389636265_)"/></g></g></svg>