<svg width="60" height="60" viewBox="0 0 60 60" fill="none" xmlns="http://www.w3.org/2000/svg">
<circle cx="30" cy="30" r="30" fill="#00214C"/>
<path d="M36 37.5001V40.5001H15V37.5001C15 37.5001 15 31.5001 25.5 31.5001C36 31.5001 36 37.5001 36 37.5001ZM30.75 23.2501C30.75 22.2117 30.4421 21.1967 29.8652 20.3333C29.2883 19.47 28.4684 18.797 27.5091 18.3997C26.5498 18.0023 25.4942 17.8984 24.4758 18.1009C23.4574 18.3035 22.5219 18.8035 21.7877 19.5377C21.0535 20.272 20.5535 21.2074 20.3509 22.2258C20.1483 23.2442 20.2523 24.2998 20.6496 25.2591C21.047 26.2185 21.7199 27.0384 22.5833 27.6153C23.4466 28.1921 24.4616 28.5001 25.5 28.5001C26.8924 28.5001 28.2277 27.9469 29.2123 26.9624C30.1969 25.9778 30.75 24.6424 30.75 23.2501ZM35.91 31.5001C36.8321 32.2137 37.5867 33.1207 38.1205 34.1573C38.6544 35.1939 38.9546 36.3349 39 37.5001V40.5001H45V37.5001C45 37.5001 45 32.0551 35.91 31.5001ZM34.5 18.0001C33.4677 17.9953 32.4582 18.3039 31.605 18.8851C32.5162 20.1582 33.0061 21.6845 33.0061 23.2501C33.0061 24.8156 32.5162 26.342 31.605 27.6151C32.4582 28.1963 33.4677 28.5049 34.5 28.5001C35.8924 28.5001 37.2277 27.9469 38.2123 26.9624C39.1969 25.9778 39.75 24.6424 39.75 23.2501C39.75 21.8577 39.1969 20.5223 38.2123 19.5377C37.2277 18.5532 35.8924 18.0001 34.5 18.0001Z" fill="white"/>
</svg>
